{"title":"Children.Of.The.Corn.Genesis.2011.DvDRip.XviD.Ac3.Feel-Free","uid":6651791,"size":978083840,"categoryP":"video","categoryS":"movies","magnet":"?xt=urn:btih:485e89e0a0bff43ee9829a8c555d3a8df4ce75e7&amp;dn=Children.Of.The.Corn.Genesis.2011.DvDRip.XviD.Ac3.Feel-Free&amp;tr=udp%3A%2F%2Ftracker.openbittorrent.com%3A80&amp;tr=udp%3A%2F%2Fopen.demonii.com%3A1337&amp;tr=udp%3A%2F%2Ftracker.coppersurfer.tk%3A6969&amp;tr=udp%3A%2F%2Fexodus.desync.com%3A6969","seeders":1,"leechers":1,"uploader":".BONE.","files":1,"time":1315179139,"description":"Genre:Horror | Thriller\nLanguage:English\n &lt;a href=&quot;\nhttp://www.imdb.com/title/tt1745672/&quot; rel=&quot;nofollow&quot; target=&quot;_NEW&quot;&gt;\nhttp://www.imdb.com/title/tt1745672/&lt;/a&gt;\n\nSource:DVD Thanks!\n\nFormat : AVI\nFormat/Info : Audio Video Interleave\nFile size : 933 MiB\nDuration : 1h 20mn\nOverall bit rate : 1 618 Kbps\n\nVideo\nID : 0\nFormat : MPEG-4 Visual\nFormat profile : Advanced Simple@L5\nFormat settings, BVOP : Yes\nFormat settings, QPel : No\nFormat settings, GMC : No warppoints\nFormat settings, Matrix : Default (H.263)\nCodec ID : XVID\nCodec ID/Hint : XviD\nDuration : 1h 20mn\nBit rate : 1 161 Kbps\nWidth : 640 pixels\nHeight : 272 pixels\nDisplay aspect ratio : 2.35:1\nFrame rate : 23.976 fps\nColor space : YUV\nChroma subsampling : 4:2:0\nBit depth : 8 bits\nScan type : Progressive\nBits/(Pixel*Frame) : 0.278\nStream size : 669 MiB (72%)\nWriting library : XviD 1.2.1 (UTC 2008-12-04)\n\nAudio\nID : 1\nFormat : AC-3\nFormat/Info : Audio Coding 3\nMode extension : CM (complete main)\nCodec ID : 2000\nDuration : 1h 20mn\nBit rate mode : Constant\nBit rate : 448 Kbps\nChannel(s) : 6 channels\nChannel positions : Front: L C R, Side: L R, LFE\nSampling rate : 48.0 KHz\nBit depth : 16 bits\nStream size : 258 MiB (28%)\nAlignment : Aligned on interleaves\nInterleave, duration : 42 ms (1.00 video frame)\nInterleave, preload duration : 512 ms\n\n\nPlot:\nA young couple tries to free an imprisoned child with catastrophic results\n","torrent":{"xt":"urn:btih:485e89e0a0bff43ee9829a8c555d3a8df4ce75e7","amp;dn":"Children.Of.The.Corn.Genesis.2011.DvDRip.XviD.Ac3.Feel-Free","amp;tr":["udp%3A%2F%2Ftracker.openbittorrent.com%3A80","udp%3A%2F%2Fopen.demonii.com%3A1337","udp%3A%2F%2Ftracker.coppersurfer.tk%3A6969","udp%3A%2F%2Fexodus.desync.com%3A6969"],"infoHash":"485e89e0a0bff43ee9829a8c555d3a8df4ce75e7","infoHashBuffer":{"type":"Buffer","data":[72,94,137,224,160,191,244,62,233,130,154,140,85,93,58,141,244,206,117,231]},"announce":[],"urlList":[]}}